<svg width="24" height="24" viewBox="0 0 24 24" fill="none" xmlns="http://www.w3.org/2000/svg">
<g clip-path="url(#clip0_642_4521)">
<path d="M13.9142 4.9294L5.78247 13.0611C4.21977 14.6238 4.21977 17.1553 5.78247 18.718C7.34518 20.2807 9.87662 20.2807 11.4393 18.718L20.2782 9.87914C21.254 8.90334 21.254 7.31942 20.2782 6.34361C19.3024 5.3678 17.7184 5.3678 16.7426 6.34361L9.31801 13.7682C8.9291 14.1571 8.9291 14.7935 9.31801 15.1824C9.70692 15.5714 10.3433 15.5714 10.7322 15.1824L17.4497 8.46493L18.5104 9.52559L11.7929 16.2431C10.8171 17.2189 9.23315 17.2189 8.25735 16.2431C7.28154 15.2673 7.28154 13.6834 8.25735 12.7076L15.682 5.28295C17.2447 3.72024 19.7761 3.72024 21.3388 5.28295C22.9015 6.84565 22.9015 9.3771 21.3388 10.9398L12.5 19.7786C10.3504 21.9282 6.87142 21.9282 4.72181 19.7786C2.57221 17.629 2.57221 14.1501 4.72181 12.0005L12.8535 3.86874L13.9142 4.9294Z" fill="#FF3358"/>
</g>
<defs>
<clipPath id="clip0_642_4521">
<rect width="24" height="24" fill="white"/>
</clipPath>
</defs>
</svg>
