<svg width="24" height="24" viewBox="0 0 24 24" fill="none" xmlns="http://www.w3.org/2000/svg">
<path d="M17.9075 5H6.58254C6.19975 5 5.88918 5.32939 5.88918 5.73539L5.88947 12.8441C5.88947 14.4681 7.13174 15.7857 8.66292 15.7857H14.2098C15.7407 15.7857 16.983 14.4681 16.983 12.8441H17.9075C19.948 12.8441 21.6054 11.0859 21.6054 8.92206C21.6054 6.75818 19.9471 5 17.9075 5ZM17.9075 10.8831H16.983V6.96103H17.9075C18.9259 6.96103 19.7564 7.84196 19.7564 8.92206C19.7564 10.0022 18.9273 10.8831 17.9075 10.8831ZM19.2942 16.7662H3.57797C3.32269 16.7662 3.11572 16.9868 3.11572 17.2564C3.11572 18.0684 3.73657 18.7272 4.50245 18.7272H18.3697C19.1356 18.7272 19.7564 18.0687 19.7564 17.2564C19.7564 16.9868 19.5484 16.7662 19.2942 16.7662Z" fill="#FF3358"/>
</svg>
