<svg width="24" height="24" viewBox="0 0 24 24" fill="none" xmlns="http://www.w3.org/2000/svg">
<path d="M11.6065 4.08085C11.8565 3.97305 12.144 3.97305 12.394 4.08085L19.3941 7.08094C19.8316 7.26875 20.0754 7.7375 19.9785 8.2C19.8848 8.66563 19.4754 8.97188 18.9723 9V9.25C18.9723 9.66563 18.666 10 18.2222 10H5.72203C5.33577 10 4.97201 9.66563 4.97201 9.25V9C4.52544 8.97188 4.116 8.66563 4.02052 8.2C3.92506 7.7375 4.16978 7.26875 4.60607 7.08094L11.6065 4.08085ZM12.0003 8C12.5534 8 13.0003 7.55313 13.0003 7C13.0003 6.44782 12.5534 6 12.0003 6C11.4471 6 11.0002 6.44782 11.0002 7C11.0002 7.55313 11.4471 8 12.0003 8ZM7.97207 17H9.22209V11H11.2221V17H12.7503V11H14.7503V17H16.0003V11H18.0004V17.1344C18.0191 17.1438 18.0379 17.1281 18.0566 17.1688L19.5566 18.1687C19.9223 18.4125 20.0848 18.8687 19.9566 19.2906C19.8285 19.7125 19.441 20 19.0004 20H4.97201C4.55951 20 4.17069 19.7125 4.043 19.2906C3.91528 18.8687 4.07872 18.4125 4.44544 18.1687L5.94547 17.1688C5.96328 17.1281 5.98172 17.1438 5.97203 17.1344V11H7.97207V17Z" fill="#FF3358"/>
</svg>
