<svg width="74" height="18" viewBox="0 0 74 18" fill="none" xmlns="http://www.w3.org/2000/svg">
<g clip-path="url(#clip0_801_535)">
<path d="M8.35735 7.22575H5.16554V5.28583H8.35735V0.587297H10.5328V15.9999H8.35735V7.22575ZM14.1347 16.8008H11.9593V0.249146H14.1347V16.8008ZM2.58 1.79753V10.3581H3.16843C3.88169 10.3581 4.58899 10.3343 5.29036 10.2869C6.00361 10.2395 6.66337 10.1683 7.26964 10.0733L7.50144 11.9777C6.82385 12.1082 6.05116 12.1972 5.18337 12.2446C4.31558 12.2802 3.41807 12.298 2.49084 12.298H0.333252V1.79753H2.58ZM59.5059 9.13008C60.4688 8.79787 61.2772 8.50124 61.931 8.24021C62.5849 7.96731 63.1198 7.72408 63.5358 7.51051C63.9638 7.29694 64.2907 7.10117 64.5165 6.9232C64.7424 6.73336 64.9088 6.55538 65.0158 6.38927L59.6307 6.58504L59.5772 4.71631L65.2119 4.59173V3.09674H60.0765V1.21021H67.4052V4.64512H70.6148V0.249146H72.8616V10.9632H70.6148V6.53165H67.1912C67.0486 6.98252 66.8227 7.39187 66.5136 7.75968C66.2046 8.11563 65.7767 8.45971 65.2298 8.79193C64.6948 9.12412 64.0232 9.46227 63.2148 9.80639C62.4065 10.1505 61.4317 10.5242 60.2905 10.9276L59.5059 9.13008ZM67.4765 14.06C67.4171 14.2261 67.2329 14.41 66.9238 14.6117C66.6266 14.8134 66.2343 15.0388 65.7469 15.288C65.1763 15.5846 64.576 15.8753 63.9459 16.1601C63.3159 16.4567 62.6977 16.7296 62.0915 16.9788L61.1999 15.1278C61.8656 14.8549 62.5432 14.5643 63.2327 14.2558C63.9222 13.9472 64.5285 13.6566 65.0515 13.3837C65.4676 13.1583 65.7767 12.8972 65.9787 12.6006C66.1808 12.304 66.2818 11.9302 66.2818 11.4793V10.1089H68.5642V11.4793C68.5642 11.9302 68.6534 12.304 68.8317 12.6006C69.022 12.8853 69.337 13.1463 69.7768 13.3837C70.0264 13.5142 70.3117 13.6566 70.6327 13.8108C70.9536 13.965 71.2806 14.1193 71.6134 14.2736C71.9582 14.4278 72.3029 14.5761 72.6476 14.7185C73.0042 14.8727 73.3371 15.0092 73.6462 15.1278L72.7724 16.9254C72.1186 16.6406 71.4886 16.3559 70.8823 16.0711C70.288 15.7982 69.7054 15.5194 69.1348 15.2346C68.6712 14.9973 68.2968 14.7778 68.0115 14.5761C67.7262 14.3863 67.5538 14.2142 67.4944 14.06H67.4765Z" fill="#0A0A0A"/>
<path d="M8.35759 7.22575H5.16578V5.28583H8.35759V0.587297H10.5331V15.9999H8.35759V7.22575ZM14.135 16.8008H11.9596V0.249146H14.135V16.8008ZM2.58024 1.79753V10.3581H3.16868C3.88193 10.3581 4.58924 10.3343 5.2906 10.2869C6.00386 10.2395 6.66362 10.1683 7.26988 10.0733L7.50169 11.9777C6.8241 12.1082 6.0514 12.1972 5.18362 12.2446C4.31583 12.2802 3.41832 12.298 2.49109 12.298H0.333496V1.79753H2.58024ZM59.5062 9.13008C60.4691 8.79787 61.2774 8.50124 61.9312 8.24021C62.5851 7.96731 63.12 7.72408 63.536 7.51051C63.964 7.29694 64.2909 7.10117 64.5168 6.9232C64.7427 6.73336 64.9091 6.55538 65.016 6.38927L59.631 6.58504L59.5775 4.71631L65.2122 4.59173V3.09674H60.0768V1.21021H67.4054V4.64512H70.6151V0.249146H72.8618V10.9632H70.6151V6.53165H67.1915C67.0488 6.98252 66.823 7.39187 66.5139 7.75968C66.2049 8.11563 65.7769 8.45971 65.23 8.79193C64.6951 9.12412 64.0235 9.46227 63.2151 9.80639C62.4068 10.1505 61.432 10.5242 60.2907 10.9276L59.5062 9.13008ZM67.4768 14.06C67.4174 14.2261 67.2331 14.41 66.924 14.6117C66.6268 14.8134 66.2345 15.0388 65.7471 15.288C65.1765 15.5846 64.5762 15.8753 63.9462 16.1601C63.3162 16.4567 62.698 16.7296 62.0917 16.9788L61.2001 15.1278C61.8659 14.8549 62.5435 14.5643 63.2329 14.2558C63.9225 13.9472 64.5287 13.6566 65.0517 13.3837C65.4678 13.1583 65.7769 12.8972 65.9789 12.6006C66.1811 12.304 66.2821 11.9302 66.2821 11.4793V10.1089H68.5645V11.4793C68.5645 11.9302 68.6536 12.304 68.832 12.6006C69.0222 12.8853 69.3372 13.1463 69.777 13.3837C70.0266 13.5142 70.3119 13.6566 70.6329 13.8108C70.9539 13.965 71.2808 14.1193 71.6136 14.2736C71.9584 14.4278 72.3032 14.5761 72.6479 14.7185C73.0045 14.8727 73.3374 15.0092 73.6464 15.1278L72.7727 16.9254C72.1189 16.6406 71.4888 16.3559 70.8825 16.0711C70.2882 15.7982 69.7057 15.5194 69.1351 15.2346C68.6715 14.9973 68.297 14.7778 68.0117 14.5761C67.7264 14.3863 67.5541 14.2142 67.4946 14.06H67.4768Z" fill="#0A0A0A"/>
<path d="M24.9969 14.7007H33.556V16.6228H22.7323V11.07H24.9969V14.7007ZM33.2885 12.0311H31.0417V0.249146H33.2885V12.0311ZM24.3015 9.50383C23.6358 9.50383 23.0355 9.40301 22.5005 9.20127C21.9774 8.9877 21.5317 8.70294 21.1632 8.34699C20.7946 7.99104 20.5093 7.5817 20.3073 7.11897C20.117 6.65623 20.022 6.1757 20.022 5.67737V4.68071C20.022 4.18239 20.117 3.70185 20.3073 3.23912C20.5093 2.77639 20.7946 2.36704 21.1632 2.01109C21.5317 1.65515 21.9774 1.37632 22.5005 1.17461C23.0355 0.961044 23.6358 0.854258 24.3015 0.854258C24.9671 0.854258 25.5615 0.961044 26.0846 1.17461C26.6196 1.37632 27.0712 1.65515 27.4398 2.01109C27.8083 2.36704 28.0876 2.77639 28.2779 3.23912C28.4799 3.70185 28.581 4.18239 28.581 4.68071V5.67737C28.581 6.1757 28.4799 6.65623 28.2779 7.11897C28.0876 7.5817 27.8083 7.99104 27.4398 8.34699C27.0712 8.70294 26.6196 8.9877 26.0846 9.20127C25.5615 9.40301 24.9671 9.50383 24.3015 9.50383ZM24.3015 2.79418C23.9686 2.79418 23.6654 2.85351 23.3921 2.97216C23.1305 3.07894 22.9047 3.22726 22.7145 3.41709C22.5362 3.60693 22.3935 3.82644 22.2866 4.0756C22.1914 4.32476 22.1439 4.57987 22.1439 4.84089V5.5172C22.1439 5.79009 22.1914 6.05112 22.2866 6.30028C22.3935 6.53759 22.5362 6.75116 22.7145 6.94099C22.9047 7.13083 23.1305 7.28508 23.3921 7.40373C23.6654 7.51051 23.9686 7.5639 24.3015 7.5639C24.6343 7.5639 24.9315 7.51051 25.1931 7.40373C25.4664 7.28508 25.6923 7.13083 25.8706 6.94099C26.0608 6.75116 26.2035 6.53759 26.2986 6.30028C26.4056 6.05112 26.4591 5.79009 26.4591 5.5172V4.84089C26.4591 4.57987 26.4056 4.32476 26.2986 4.0756C26.2035 3.82644 26.0608 3.60693 25.8706 3.41709C25.6923 3.22726 25.4664 3.07894 25.1931 2.97216C24.9315 2.85351 24.6343 2.79418 24.3015 2.79418ZM49.91 3.93322H51.283V0.249146H53.4228V10.2157H51.283V5.87314H49.91V9.52163H47.7881V0.462714H49.91V3.93322ZM48.1626 17.2991C47.3898 17.2991 46.6766 17.2279 46.0228 17.0855C45.3809 16.9432 44.8221 16.7356 44.3467 16.4626C43.8831 16.1897 43.5146 15.8575 43.2411 15.466C42.9796 15.0863 42.8488 14.6533 42.8488 14.1668V13.4193C42.8488 12.9328 42.9796 12.4998 43.2411 12.1201C43.5146 11.7285 43.8831 11.3963 44.3467 11.1234C44.8221 10.8505 45.3809 10.6429 46.0228 10.5005C46.6766 10.3581 47.3898 10.2869 48.1626 10.2869C48.9233 10.2869 49.6307 10.3581 50.2845 10.5005C50.9383 10.6429 51.497 10.8505 51.9606 11.1234C52.4361 11.3963 52.8047 11.7285 53.0662 12.1201C53.3396 12.4998 53.4763 12.9328 53.4763 13.4193V14.1668C53.4763 14.6533 53.3396 15.0863 53.0662 15.466C52.8047 15.8575 52.4361 16.1897 51.9606 16.4626C51.497 16.7356 50.9383 16.9432 50.2845 17.0855C49.6307 17.2279 48.9233 17.2991 48.1626 17.2991ZM48.1626 12.1023C47.7584 12.1023 47.3661 12.1438 46.9857 12.2268C46.6172 12.298 46.2903 12.4048 46.005 12.5472C45.7197 12.6777 45.4879 12.832 45.3096 13.0099C45.1431 13.1879 45.0599 13.3837 45.0599 13.5972V13.9888C45.0599 14.2024 45.1431 14.3981 45.3096 14.5761C45.4879 14.7541 45.7197 14.9083 46.005 15.0388C46.2903 15.1812 46.6172 15.288 46.9857 15.3592C47.3661 15.4422 47.7584 15.4838 48.1626 15.4838C48.5667 15.4838 48.9531 15.4422 49.3216 15.3592C49.702 15.288 50.0349 15.1812 50.3202 15.0388C50.6055 14.9083 50.8313 14.7541 50.9977 14.5761C51.1761 14.3981 51.2652 14.2024 51.2652 13.9888V13.5972C51.2652 13.3837 51.1761 13.1879 50.9977 13.0099C50.8313 12.832 50.6055 12.6777 50.3202 12.5472C50.0349 12.4048 49.702 12.298 49.3216 12.2268C48.9531 12.1438 48.5667 12.1023 48.1626 12.1023ZM46.1833 9.46823C45.9098 9.2309 45.6067 8.96394 45.2739 8.66735C44.9411 8.37073 44.6558 8.11563 44.418 7.90206C44.1445 7.65289 43.9306 7.44526 43.7761 7.27914C43.6334 7.10117 43.5324 6.94693 43.4729 6.81641H43.4551C43.3956 6.97065 43.2946 7.13676 43.152 7.31474C43.0212 7.48085 42.831 7.69442 42.5814 7.95545C42.3436 8.19275 42.0346 8.50123 41.6541 8.88092C41.2737 9.2487 40.8577 9.63437 40.4059 10.0378L38.9616 8.56056C39.342 8.22835 39.7165 7.88426 40.085 7.52831C40.4654 7.17236 40.8339 6.80455 41.1905 6.42487C41.4045 6.19943 41.5828 5.97993 41.7255 5.76636C41.8681 5.55279 41.9811 5.33328 42.0643 5.10785C42.1474 4.88242 42.2009 4.65105 42.2247 4.41375C42.2604 4.16459 42.2782 3.89169 42.2782 3.59507V1.08563H44.4893V3.48828C44.4893 3.78491 44.5012 4.05187 44.525 4.28917C44.5488 4.52647 44.5963 4.7519 44.6676 4.96547C44.7508 5.17904 44.8578 5.39261 44.9886 5.60618C45.1312 5.80789 45.3096 6.01552 45.5235 6.22909C46.1417 6.85794 46.8014 7.46306 47.5028 8.04444L46.1833 9.46823Z" fill="#0A0A0A"/>
<path d="M2.58366 1.79834V10.3589H3.17209C3.88535 10.3589 4.59265 10.3352 5.29402 10.2877C6.00728 10.2403 6.66703 10.1691 7.2733 10.0742L7.50511 11.9785C6.82752 12.109 6.05482 12.198 5.18703 12.2455C4.31925 12.281 3.42173 12.2988 2.4945 12.2988H0.336914V1.79834H2.58366Z" fill="#FF3358"/>
<path d="M24.2971 9.50205C23.6314 9.50205 23.0311 9.40123 22.4961 9.19949C21.9731 8.98592 21.5273 8.70116 21.1588 8.34521C20.7902 7.98926 20.5049 7.57992 20.3029 7.11719C20.1126 6.65445 20.0176 6.17392 20.0176 5.67559V4.67893C20.0176 4.18061 20.1126 3.70007 20.3029 3.23734C20.5049 2.77461 20.7902 2.36526 21.1588 2.00931C21.5273 1.65337 21.9731 1.37454 22.4961 1.17283C23.0311 0.959264 23.6314 0.852478 24.2971 0.852478C24.9627 0.852478 25.5571 0.959264 26.0802 1.17283C26.6152 1.37454 27.0668 1.65337 27.4354 2.00931C27.8039 2.36526 28.0832 2.77461 28.2735 3.23734C28.4755 3.70007 28.5766 4.18061 28.5766 4.67893V5.67559C28.5766 6.17392 28.4755 6.65445 28.2735 7.11719C28.0832 7.57992 27.8039 7.98926 27.4354 8.34521C27.0668 8.70116 26.6152 8.98592 26.0802 9.19949C25.5571 9.40123 24.9627 9.50205 24.2971 9.50205ZM24.2971 2.7924C23.9642 2.7924 23.6611 2.85173 23.3877 2.97038C23.1261 3.07716 22.9003 3.22548 22.7101 3.41531C22.5318 3.60515 22.3891 3.82466 22.2822 4.07382C22.187 4.32298 22.1395 4.57809 22.1395 4.83911V5.51542C22.1395 5.78831 22.187 6.04934 22.2822 6.2985C22.3891 6.53581 22.5318 6.74938 22.7101 6.93921C22.9003 7.12905 23.1261 7.2833 23.3877 7.40195C23.6611 7.50873 23.9642 7.56212 24.2971 7.56212C24.6299 7.56212 24.9271 7.50873 25.1887 7.40195C25.462 7.2833 25.6879 7.12905 25.8663 6.93921C26.0564 6.74938 26.1991 6.53581 26.2942 6.2985C26.4012 6.04934 26.4547 5.78831 26.4547 5.51542V4.83911C26.4547 4.57809 26.4012 4.32298 26.2942 4.07382C26.1991 3.82466 26.0564 3.60515 25.8663 3.41531C25.6879 3.22548 25.462 3.07716 25.1887 2.97038C24.9271 2.85173 24.6299 2.7924 24.2971 2.7924Z" fill="#FF3358"/>
<path d="M59.5092 9.12819C60.472 8.79597 61.2804 8.49934 61.9342 8.23831C62.5881 7.96542 63.123 7.72219 63.539 7.50862C63.967 7.29505 64.2939 7.09927 64.5198 6.9213C64.7457 6.73146 64.912 6.55349 65.019 6.38738L59.634 6.58315L59.5805 4.71441L65.2152 4.58983V3.09484H60.0798V1.20831H67.4084V4.28518C67.4084 4.52379 67.4193 4.76221 67.426 5.00072C67.4315 5.19803 67.4312 5.44054 67.4084 5.62915C67.365 5.98803 67.1944 6.52976 67.1944 6.52976C67.0518 6.98063 66.826 7.38997 66.5169 7.75778C66.2078 8.11373 65.7799 8.45782 65.233 8.79003C64.6981 9.12222 64.0265 9.46038 63.2181 9.80449C62.4098 10.1486 61.4349 10.5224 60.2937 10.9257L59.5092 9.12819Z" fill="#FF3358"/>
</g>
<defs>
<clipPath id="clip0_801_535">
<rect width="74" height="17.7975" fill="white"/>
</clipPath>
</defs>
</svg>
