<svg width="24" height="24" viewBox="0 0 24 24" fill="none" xmlns="http://www.w3.org/2000/svg">
<path d="M11.36 17.3197C14.3202 17.3197 16.7199 14.9154 16.7199 11.9496C16.7199 8.9838 14.3202 6.57954 11.36 6.57954C8.39974 6.57954 6 8.9838 6 11.9496C6 14.9154 8.39974 17.3197 11.36 17.3197Z" stroke="#FF3358" stroke-width="1.4194" stroke-linecap="round" stroke-linejoin="round"/>
<path d="M11.6304 5.75363C12.3908 5.75363 13.0073 5.13715 13.0073 4.37668C13.0073 3.61622 12.3908 2.99974 11.6304 2.99974C10.8699 2.99974 10.2534 3.61622 10.2534 4.37668C10.2534 5.13715 10.8699 5.75363 11.6304 5.75363Z" fill="#FF3358" stroke="#FF3358" stroke-width="1.4194" stroke-linecap="round" stroke-linejoin="round"/>
<path d="M17.8833 9.33394C18.6438 9.33394 19.2602 8.71746 19.2602 7.957C19.2602 7.19653 18.6438 6.58006 17.8833 6.58006C17.1228 6.58006 16.5063 7.19653 16.5063 7.957C16.5063 8.71746 17.1228 9.33394 17.8833 9.33394Z" fill="#FF3358" stroke="#FF3358" stroke-width="1.4194" stroke-linecap="round" stroke-linejoin="round"/>
<path d="M5.37694 9.33394C6.13741 9.33394 6.75389 8.71746 6.75389 7.957C6.75389 7.19653 6.13741 6.58006 5.37694 6.58006C4.61648 6.58006 4 7.19653 4 7.957C4 8.71746 4.61648 9.33394 5.37694 9.33394Z" fill="#FF3358" stroke="#FF3358" stroke-width="1.4194" stroke-linecap="round" stroke-linejoin="round"/>
<path d="M5.37694 16.4941C6.13741 16.4941 6.75389 15.8776 6.75389 15.1171C6.75389 14.3566 6.13741 13.7402 5.37694 13.7402C4.61648 13.7402 4 14.3566 4 15.1171C4 15.8776 4.61648 16.4941 5.37694 16.4941Z" fill="#FF3358" stroke="#FF3358" stroke-width="1.4194" stroke-linecap="round" stroke-linejoin="round"/>
<path d="M17.8833 16.4941C18.6438 16.4941 19.2602 15.8776 19.2602 15.1171C19.2602 14.3566 18.6438 13.7402 17.8833 13.7402C17.1228 13.7402 16.5063 14.3566 16.5063 15.1171C16.5063 15.8776 17.1228 16.4941 17.8833 16.4941Z" fill="#FF3358" stroke="#FF3358" stroke-width="1.4194" stroke-linecap="round" stroke-linejoin="round"/>
<path d="M8 20.9001L11.5733 11.95L15.1466 20.9001" stroke="#FF3358" stroke-width="1.4194" stroke-linecap="round" stroke-linejoin="round"/>
</svg>
