<svg width="24" height="24" viewBox="0 0 24 24" fill="none" xmlns="http://www.w3.org/2000/svg">

<path d="M10.17 5.00003C10.3194 4.99952 10.467 5.03249 10.6019 5.09652C10.7369 5.16055 10.8558 5.25401 10.95 5.37003L15.78 11.37C15.927 11.549 16.0074 11.7734 16.0074 12.005C16.0074 12.2367 15.927 12.4611 15.78 12.64L10.78 18.64C10.6102 18.8442 10.3663 18.9727 10.1019 18.9971C9.83746 19.0214 9.57417 18.9398 9.36996 18.77C9.16574 18.6003 9.03732 18.3564 9.01294 18.092C8.98856 17.8275 9.07022 17.5642 9.23996 17.36L13.71 12L9.38996 6.64003C9.26768 6.49324 9.19 6.3145 9.16612 6.12496C9.14224 5.93541 9.17316 5.74298 9.25521 5.57045C9.33727 5.39793 9.46703 5.25252 9.62914 5.15143C9.79125 5.05033 9.97892 4.9978 10.17 5.00003Z" fill="#6C6C6C"/>

</svg>
