<svg width="10" height="12" viewBox="0 0 10 12" fill="none" xmlns="http://www.w3.org/2000/svg">
<path fill-rule="evenodd" clip-rule="evenodd" d="M4.58642 11.6619L5 11.25L4.58642 11.6619ZM5 11.25L5.413 11.6619C5.35881 11.7163 5.2944 11.7594 5.22347 11.7889C5.15255 11.8184 5.07651 11.8335 4.99971 11.8335C4.92291 11.8335 4.84687 11.8184 4.77595 11.7889C4.70502 11.7594 4.64062 11.7163 4.58642 11.6619L4.58292 11.6578L4.573 11.6479L4.53684 11.6111C4.3312 11.3993 4.12896 11.1842 3.93017 10.9659C3.43107 10.419 2.95316 9.85318 2.4975 9.2696C1.97717 8.59877 1.44517 7.84044 1.04092 7.09144C0.645419 6.35702 0.333336 5.56135 0.333336 4.83335C0.333336 2.1856 2.42867 0.166687 5 0.166687C7.57134 0.166687 9.66667 2.1856 9.66667 4.83335C9.66667 5.56135 9.35459 6.35702 8.95909 7.09085C8.55484 7.84102 8.02342 8.59877 7.5025 9.2696C6.86514 10.0861 6.18438 10.8677 5.46317 11.6111L5.427 11.6479L5.41709 11.6578L5.41359 11.6613L5 11.25ZM5 6.58335C5.46413 6.58335 5.90925 6.39898 6.23744 6.07079C6.56563 5.7426 6.75 5.29748 6.75 4.83335C6.75 4.36922 6.56563 3.92411 6.23744 3.59592C5.90925 3.26773 5.46413 3.08335 5 3.08335C4.53587 3.08335 4.09075 3.26773 3.76257 3.59592C3.43438 3.92411 3.25 4.36922 3.25 4.83335C3.25 5.29748 3.43438 5.7426 3.76257 6.07079C4.09075 6.39898 4.53587 6.58335 5 6.58335V6.58335Z" fill="#3B3B3B"/>
</svg>
