<svg width="24" height="24" viewBox="0 0 24 24" fill="none" xmlns="http://www.w3.org/2000/svg">
<path d="M11.7625 8.93009C11.871 9.34758 11.8745 9.78494 11.78 10.2057C11.682 10.6 11.4825 11.0241 11.2025 11.3621C10.695 11.9088 10.0616 12.2567 9.29509 12.4224V19.6422C9.29509 19.9934 9.1796 20.3314 8.91711 20.5799C8.65462 20.8284 8.29764 20.9676 7.89516 20.9676C7.55567 20.9676 7.19939 20.8284 6.93655 20.5799C6.67406 20.3314 6.49522 19.9934 6.49522 19.6422V12.4224C5.79035 12.2899 5.12538 11.9188 4.6473 11.372C4.36347 11.0341 4.16534 10.6398 4.06826 10.2157C3.97117 9.79157 3.97773 9.3542 4.08744 8.93341L5.14463 4.41562C5.17438 4.28799 5.25313 4.1753 5.36547 4.0992C5.47747 4.02305 5.61571 3.98887 5.7529 4.00319C5.89045 4.01736 6.01784 4.07941 6.11024 4.17736C6.20263 4.27527 6.25303 4.40204 6.25233 4.53325V9.3045H6.86025L7.45838 4.39773C7.47238 4.28922 7.52767 4.18935 7.61517 4.11689C7.69916 4.04446 7.81116 4.00444 7.89516 4.00444C8.04215 4.00444 8.15414 4.04446 8.23814 4.11689C8.32564 4.18935 8.35013 4.28922 8.39563 4.39773L8.99411 9.3045H9.57508V4.53325C9.57508 4.40303 9.65558 4.27706 9.71507 4.17928C9.83757 4.0815 9.96356 4.01881 10.1001 4.00319C10.2365 3.98899 10.345 4.02362 10.4885 4.10039C10.6005 4.17716 10.6775 4.29061 10.709 4.41894L11.7625 8.93009ZM19.6861 19.6422C19.6861 19.9934 19.5391 20.3314 19.2766 20.5799C19.0141 20.8284 18.6572 20.9676 18.2862 20.9676C17.9152 20.9676 17.5582 20.8284 17.2957 20.5799C17.0332 20.3314 16.8862 19.9934 16.8862 19.6422V15.6662H16.2983C16.0043 15.6662 15.7103 15.6099 15.4373 15.5038C15.1678 15.3945 14.9193 15.2388 14.7093 15.04C14.5029 14.8411 14.3384 14.6059 14.1949 14.3475C14.1144 14.089 14.0584 13.8107 14.0584 13.5324L14.0549 9.76175C14.0864 8.53911 14.4749 7.34299 15.1993 6.33175C15.9238 5.31885 16.9492 4.5349 18.1497 4.08061C18.2897 4.01639 18.5032 3.9925 18.6852 4.01103C18.8672 4.02955 19.0421 4.08992 19.1926 4.18687C19.3431 4.28382 19.4691 4.4143 19.5531 4.56737C19.6406 4.72012 19.6546 4.89043 19.6861 5.06339V19.6422Z" fill="#FF3358"/>
</svg>
