<svg width="12" height="11" viewBox="0 0 12 11" fill="none" xmlns="http://www.w3.org/2000/svg">
<path d="M11.0214 4.31928L7.8394 3.85682L6.41695 0.973084C6.3781 0.894129 6.31418 0.830213 6.23523 0.791362C6.03721 0.693608 5.79659 0.77507 5.69758 0.973084L4.27514 3.85682L1.09312 4.31928C1.00539 4.33181 0.925185 4.37317 0.863776 4.43583C0.789535 4.51213 0.748625 4.61479 0.750035 4.72125C0.751445 4.8277 0.79506 4.92924 0.871296 5.00355L3.17353 7.24813L2.62961 10.4176C2.61686 10.4913 2.62502 10.5672 2.65316 10.6365C2.68131 10.7058 2.72832 10.7659 2.78886 10.8099C2.8494 10.8538 2.92105 10.88 2.99569 10.8853C3.07032 10.8906 3.14496 10.8749 3.21112 10.84L6.05727 9.34358L8.90341 10.84C8.98111 10.8813 9.07135 10.8951 9.15782 10.8801C9.37589 10.8425 9.52252 10.6357 9.48492 10.4176L8.94101 7.24813L11.2432 5.00355C11.3059 4.94214 11.3473 4.86193 11.3598 4.77421C11.3936 4.55489 11.2407 4.35186 11.0214 4.31928V4.31928Z" fill="#FF3358"/>
</svg>
