<svg width="300" height="40" viewBox="0 0 300 40" fill="none" xmlns="http://www.w3.org/2000/svg">
<rect width="300" height="40" rx="5" fill="#CECECE"/>
<path d="M114.272 14.352V27.176H115.742V14.352H114.272ZM108.924 15.304C107.02 15.304 105.634 17.054 105.634 19.812C105.634 22.57 107.02 24.334 108.924 24.334C110.842 24.334 112.228 22.57 112.228 19.812C112.228 17.054 110.842 15.304 108.924 15.304ZM108.924 16.634C110.044 16.634 110.814 17.824 110.814 19.812C110.814 21.814 110.044 23.018 108.924 23.018C107.804 23.018 107.034 21.814 107.034 19.812C107.034 17.824 107.804 16.634 108.924 16.634ZM118.151 15.766V23.83H123.107V15.766H118.151ZM121.735 16.928V22.682H119.523V16.928H121.735ZM127.265 14.366V27.162H128.665V14.366H127.265ZM122.365 19.112V20.302H125.277V19.112H122.365ZM124.689 14.604V26.546H126.075V14.604H124.689ZM133.859 14.786C131.941 14.786 130.513 15.976 130.513 17.67C130.513 19.35 131.941 20.54 133.859 20.54C135.791 20.54 137.219 19.35 137.219 17.67C137.219 15.976 135.791 14.786 133.859 14.786ZM133.859 15.99C134.979 15.99 135.791 16.648 135.791 17.67C135.791 18.692 134.979 19.35 133.859 19.35C132.753 19.35 131.927 18.692 131.927 17.67C131.927 16.648 132.753 15.99 133.859 15.99ZM139.347 14.366V20.848H140.817V14.366H139.347ZM132.431 21.436V22.584H139.361V23.634H132.459V26.476H133.887V24.712H140.817V21.436H132.431ZM132.459 25.846V27.008H141.195V25.846H132.459ZM142.806 24.46V25.664H154.398V24.46H142.806ZM147.846 21.856V24.95H149.302V21.856H147.846ZM144.164 15.262V16.438H151.556V18.146H144.192V21.688H145.648V19.308H153.012V15.262H144.164ZM144.192 21.086V22.276H153.306V21.086H144.192ZM158.134 24.46V25.664H169.726V24.46H158.134ZM163.174 21.856V24.95H164.63V21.856H163.174ZM159.492 15.262V16.438H166.884V18.146H159.52V21.688H160.976V19.308H168.34V15.262H159.492ZM159.52 21.086V22.276H168.634V21.086H159.52ZM171.883 15.64V16.816H180.059V15.64H171.883ZM170.665 24.18V25.384H182.229V24.18H170.665ZM179.275 15.64V17.026C179.275 18.678 179.275 20.554 178.785 23.088L180.255 23.228C180.731 20.526 180.731 18.734 180.731 17.026V15.64H179.275ZM192.267 14.38V23.648H193.737V14.38H192.267ZM185.379 25.72V26.91H194.101V25.72H185.379ZM185.379 22.71V26.168H186.849V22.71H185.379ZM186.835 15.234C184.903 15.234 183.433 16.55 183.433 18.426C183.433 20.274 184.903 21.618 186.835 21.618C188.767 21.618 190.223 20.274 190.223 18.426C190.223 16.55 188.767 15.234 186.835 15.234ZM186.835 16.494C187.955 16.494 188.795 17.25 188.795 18.426C188.795 19.574 187.955 20.33 186.835 20.33C185.715 20.33 184.861 19.574 184.861 18.426C184.861 17.25 185.715 16.494 186.835 16.494Z" fill="white"/>
</svg>
