<svg width="36" height="36" viewBox="0 0 36 36" fill="none" xmlns="http://www.w3.org/2000/svg">
<path d="M20.745 28.5C20.5209 28.5008 20.2995 28.4514 20.097 28.3553C19.8946 28.2593 19.7162 28.1191 19.575 27.945L12.33 18.945C12.1094 18.6766 11.9888 18.34 11.9888 17.9925C11.9888 17.6451 12.1094 17.3084 12.33 17.04L19.83 8.04005C20.0846 7.73372 20.4505 7.54109 20.8471 7.50452C21.2438 7.46795 21.6387 7.59044 21.945 7.84505C22.2513 8.09966 22.444 8.46552 22.4805 8.86216C22.5171 9.2588 22.3946 9.65372 22.14 9.96005L15.435 18L21.915 26.04C22.0984 26.2602 22.2149 26.5283 22.2508 26.8127C22.2866 27.097 22.2402 27.3856 22.1171 27.6444C21.994 27.9032 21.7994 28.1213 21.5562 28.273C21.3131 28.4246 21.0316 28.5034 20.745 28.5Z" fill="#E7E7E7" fill-opacity="0.8"/>
</svg>
