<svg width="65" height="65" viewBox="0 0 65 65" fill="none" xmlns="http://www.w3.org/2000/svg">
<path fill-rule="evenodd" clip-rule="evenodd" d="M32.4999 2.70831C16.0468 2.70831 2.70825 16.0469 2.70825 32.5C2.70825 48.9531 16.0468 62.2916 32.4999 62.2916C48.953 62.2916 62.2916 48.9531 62.2916 32.5C62.2916 16.0469 48.953 2.70831 32.4999 2.70831ZM45.4132 27.4625C45.651 27.1907 45.8321 26.8741 45.9457 26.5313C46.0593 26.1885 46.1032 25.8264 46.0748 25.4664C46.0464 25.1064 45.9464 24.7557 45.7804 24.4349C45.6145 24.1141 45.3861 23.8298 45.1087 23.5986C44.8313 23.3674 44.5104 23.194 44.165 23.0887C43.8195 22.9833 43.4565 22.9481 43.0973 22.9851C42.7381 23.0221 42.3899 23.1306 42.0732 23.3042C41.7565 23.4778 41.4777 23.7129 41.2533 23.9958L29.6074 37.9681L23.5814 31.9394C23.0706 31.446 22.3864 31.173 21.6763 31.1792C20.9662 31.1854 20.2869 31.4702 19.7848 31.9723C19.2826 32.4745 18.9978 33.1538 18.9916 33.8639C18.9855 34.574 19.2584 35.2581 19.7518 35.7689L27.8768 43.8939C28.1429 44.1599 28.4615 44.3675 28.8123 44.5035C29.1631 44.6395 29.5384 44.7009 29.9142 44.6838C30.29 44.6667 30.6582 44.5716 30.9952 44.4043C31.3322 44.2371 31.6307 44.0015 31.8716 43.7125L45.4132 27.4625Z" fill="#FF3358"/>
</svg>
