<svg width="25" height="24" viewBox="0 0 25 24" fill="none" xmlns="http://www.w3.org/2000/svg">
<path d="M10.8126 17.6248C12.3687 17.6273 13.8846 17.1313 15.1383 16.2096H15.1372C15.171 16.2546 15.207 16.2973 15.2475 16.339L19.5788 20.6702C19.7897 20.8812 20.0759 20.9999 20.3744 21C20.6728 21.0001 20.959 20.8817 21.1701 20.6707C21.3812 20.4598 21.4999 20.1736 21.5 19.8752C21.5001 19.5768 21.3817 19.2905 21.1707 19.0794L16.8394 14.7482C16.7991 14.7075 16.7559 14.6699 16.71 14.6357C17.6315 13.3828 18.1275 11.8677 18.1253 10.3124C18.1247 8.37322 17.354 6.51363 15.9828 5.14241C14.6115 3.7712 12.7519 3.0006 10.8126 3C8.8732 3 7.01321 3.77041 5.64182 5.14175C4.27044 6.5131 3.5 8.37304 3.5 10.3124C3.5 12.2518 4.27044 14.1117 5.64182 15.4831C7.01321 16.8544 8.8732 17.6248 10.8126 17.6248ZM10.4276 8.05253C10.6468 8.21471 10.9785 8.21471 11.1977 8.05253C13.0867 6.65535 16.823 9.66412 11.0392 13.5384C10.9055 13.6279 10.7198 13.6279 10.5861 13.5384C4.80226 9.66412 8.53855 6.65535 10.4276 8.05253Z" fill="#3B3B3B"/>
</svg>
