<svg width="25" height="24" viewBox="0 0 25 24" fill="none" xmlns="http://www.w3.org/2000/svg">
<path d="M21.6287 11.4835L13.2178 3.18891C13.1572 3.12903 13.0853 3.08152 13.0061 3.0491C12.9269 3.01669 12.842 3 12.7563 3C12.6706 3 12.5857 3.01669 12.5065 3.0491C12.4273 3.08152 12.3554 3.12903 12.2948 3.18891L3.88389 11.4835C3.63885 11.7253 3.5 12.0538 3.5 12.3964C3.5 13.1077 4.08605 13.6861 4.80687 13.6861H5.69308V19.6048C5.69308 19.9615 5.98509 20.2496 6.34652 20.2496H11.0287C11.2611 20.2496 11.4494 20.0613 11.4494 19.8289V16.1563C11.4494 15.9239 11.6378 15.7356 11.8701 15.7356H13.3157C13.5481 15.7356 13.7364 15.9239 13.7364 16.1563V19.8289C13.7364 20.0613 13.9248 20.2496 14.1572 20.2496H19.166C19.5275 20.2496 19.8195 19.9615 19.8195 19.6048V13.6861H20.7057C21.0528 13.6861 21.3857 13.5511 21.6307 13.3072C22.1392 12.8034 22.1392 11.9873 21.6287 11.4835Z" fill="#FF3358"/>
</svg>
