<svg width="20" height="20" viewBox="0 0 20 20" fill="none" xmlns="http://www.w3.org/2000/svg">
<path d="M8.49804 2.5C7.55927 2.5005 6.63371 2.72123 5.79575 3.14445C4.95779 3.56767 4.23081 4.18157 3.67323 4.93681C3.11565 5.69205 2.74302 6.56757 2.5853 7.493C2.42758 8.41842 2.48917 9.36794 2.76511 10.2652C3.04105 11.1625 3.52365 11.9826 4.17412 12.6595C4.82459 13.3364 5.62478 13.8512 6.51039 14.1626C7.396 14.4741 8.34232 14.5734 9.27329 14.4526C10.2043 14.3319 11.0939 13.9944 11.8707 13.4673L15.5795 17.173C15.6825 17.2836 15.8067 17.3723 15.9448 17.4338C16.0828 17.4953 16.2318 17.5283 16.3829 17.531C16.534 17.5337 16.6841 17.5059 16.8242 17.4493C16.9643 17.3927 17.0915 17.3085 17.1984 17.2016C17.3053 17.0948 17.3895 16.9675 17.4461 16.8274C17.5027 16.6873 17.5305 16.5372 17.5278 16.3861C17.5251 16.235 17.4921 16.086 17.4306 15.948C17.3691 15.81 17.2804 15.6857 17.1698 15.5827L13.4641 11.8739C14.0771 10.9716 14.4327 9.91927 14.4924 8.83002C14.5522 7.74077 14.3139 6.65583 13.8033 5.69185C13.2926 4.72788 12.5288 3.92134 11.594 3.35895C10.6593 2.79657 9.58893 2.4996 8.49804 2.5V2.5ZM4.74726 8.50125C4.74726 7.50648 5.14243 6.55245 5.84584 5.84904C6.54924 5.14564 7.50327 4.75047 8.49804 4.75047C9.49281 4.75047 10.4468 5.14564 11.1502 5.84904C11.8536 6.55245 12.2488 7.50648 12.2488 8.50125C12.2488 9.49601 11.8536 10.45 11.1502 11.1534C10.4468 11.8569 9.49281 12.252 8.49804 12.252C7.50327 12.252 6.54924 11.8569 5.84584 11.1534C5.14243 10.45 4.74726 9.49601 4.74726 8.50125Z" fill="#B6B6B6"/>
</svg>
