<svg width="19" height="20" viewBox="0 0 19 20" fill="none" xmlns="http://www.w3.org/2000/svg">
<path d="M15.5 14.016C16.745 14.545 17.5 15.239 17.5 16C17.5 17.657 13.918 19 9.5 19C5.082 19 1.5 17.657 1.5 16C1.5 15.24 2.255 14.544 3.5 14.016" stroke="#3B3B3B" stroke-width="1.82857" stroke-linecap="round" stroke-linejoin="round"/>
<path fill-rule="evenodd" clip-rule="evenodd" d="M8.762 15.6749L9.5 14.9999L8.762 15.6749ZM10.238 15.6749L10.243 15.6699L10.255 15.6559L10.3 15.6059L10.466 15.4199C11.2969 14.4735 12.0806 13.4867 12.814 12.4629C13.456 11.5629 14.114 10.5429 14.615 9.52988C15.105 8.53988 15.5 7.45088 15.5 6.44388C15.5 2.87088 12.882 -0.00012207 9.5 -0.00012207C6.118 -0.00012207 3.5 2.86988 3.5 6.44388C3.5 7.45088 3.895 8.53988 4.385 9.52988C4.886 10.5429 5.545 11.5629 6.185 12.4629C6.96744 13.5541 7.80694 14.6032 8.7 15.6059L8.745 15.6559L8.757 15.6699L8.762 15.6749C8.8557 15.7773 8.9697 15.8592 9.09676 15.9152C9.22382 15.9712 9.36115 16.0001 9.5 16.0001C9.63885 16.0001 9.77618 15.9712 9.90324 15.9152C10.0303 15.8592 10.1443 15.7773 10.238 15.6749ZM9.5 14.9999L10.238 15.6739L9.5 14.9999ZM9.5 3.99988C8.96957 3.99988 8.46086 4.21059 8.08579 4.58566C7.71071 4.96074 7.5 5.46944 7.5 5.99988C7.5 6.53031 7.71071 7.03902 8.08579 7.41409C8.46086 7.78916 8.96957 7.99988 9.5 7.99988C10.0304 7.99988 10.5391 7.78916 10.9142 7.41409C11.2893 7.03902 11.5 6.53031 11.5 5.99988C11.5 5.46944 11.2893 4.96074 10.9142 4.58566C10.5391 4.21059 10.0304 3.99988 9.5 3.99988Z" fill="#3B3B3B"/>
</svg>
