<svg width="24" height="24" viewBox="0 0 24 24" fill="none" xmlns="http://www.w3.org/2000/svg">
<path d="M18.0721 18.4058L12.7062 18.4368V19.5385C12.7062 20.1484 12.2233 20.6409 11.6214 20.6409C11.0205 20.6409 10.5298 20.1477 10.5298 19.5392V18.4375L5.12645 18.4372C4.15731 18.4372 3.64077 17.2494 4.28687 16.4948L6.63253 13.7539H6.11667C5.25261 13.7539 4.78538 12.7276 5.34578 12.0619L7.40002 9.62199H7.03447C6.31084 9.62199 5.91672 8.84712 6.37885 8.33709L10.9627 3.29188C11.3164 2.90273 11.9223 2.90273 12.276 3.29177L16.8633 8.33698C17.3264 8.84701 16.9313 9.62187 16.2076 9.62187H15.8414L17.8936 12.0622C18.4533 12.7282 17.986 13.7538 17.1224 13.7538H16.6055L18.9512 16.4947C19.599 17.2556 19.0685 18.4058 18.0721 18.4058Z" fill="#FF3358"/>
</svg>
