<svg width="36" height="36" viewBox="0 0 36 36" fill="none" xmlns="http://www.w3.org/2000/svg">
<path d="M15.255 28.5C15.4791 28.5008 15.7005 28.4514 15.903 28.3553C16.1054 28.2593 16.2838 28.1191 16.425 27.945L23.67 18.945C23.8906 18.6766 24.0112 18.34 24.0112 17.9925C24.0112 17.6451 23.8906 17.3084 23.67 17.04L16.17 8.04005C15.9154 7.73372 15.5495 7.54109 15.1529 7.50452C14.7562 7.46795 14.3613 7.59044 14.055 7.84505C13.7487 8.09966 13.556 8.46552 13.5195 8.86216C13.4829 9.2588 13.6054 9.65372 13.86 9.96005L20.565 18L14.085 26.04C13.9016 26.2602 13.7851 26.5283 13.7492 26.8127C13.7134 27.097 13.7598 27.3856 13.8829 27.6444C14.006 27.9032 14.2006 28.1213 14.4438 28.273C14.6869 28.4246 14.9684 28.5034 15.255 28.5Z" fill="#E7E7E7" fill-opacity="0.8"/>
</svg>
