<svg width="90" height="90" viewBox="0 0 90 90" fill="none" xmlns="http://www.w3.org/2000/svg">
<circle cx="45" cy="45" r="44.9" fill="#EFEFEF" stroke="#E7E7E7" stroke-width="0.2"/>
<path fill-rule="evenodd" clip-rule="evenodd" d="M20.4814 82.7398V79.4949C20.4814 74.4709 25.5055 59.3989 45.6015 59.3989C65.6975 59.3989 70.7215 74.4709 70.7215 79.4949V81.9295C63.4313 87.0165 54.5643 90 45.0005 90C35.9562 90 27.5352 87.3319 20.4814 82.7398ZM56.259 49.9604C53.4325 52.7869 49.5988 54.3749 45.6015 54.3749C41.6041 54.3749 37.7705 52.7869 34.944 49.9604C32.1174 47.1338 30.5295 43.3002 30.5295 39.3029C30.5295 35.3055 32.1174 31.4719 34.944 28.6453C37.7705 25.8188 41.6041 24.2308 45.6015 24.2308C49.5988 24.2308 53.4325 25.8188 56.259 28.6453C59.0856 31.4719 60.6735 35.3055 60.6735 39.3029C60.6735 43.3002 59.0856 47.1338 56.259 49.9604Z" fill="white"/>
</svg>
