<svg width="25" height="24" viewBox="0 0 25 24" fill="none" xmlns="http://www.w3.org/2000/svg">
<path d="M6.08332 21.9999C6.08332 21.9999 4.5 21.9999 4.5 20.4166C4.5 18.8332 6.08332 14.0833 12.4166 14.0833C18.7499 14.0833 20.3332 18.8332 20.3332 20.4166C20.3332 21.9999 18.7499 21.9999 18.7499 21.9999H6.08332ZM12.4166 12.4999C13.6764 12.4999 14.8846 11.9995 15.7754 11.1087C16.6661 10.2179 17.1666 9.00974 17.1666 7.74997C17.1666 6.4902 16.6661 5.28203 15.7754 4.39123C14.8846 3.50044 13.6764 3 12.4166 3C11.1568 3 9.94867 3.50044 9.05788 4.39123C8.16709 5.28203 7.66665 6.4902 7.66665 7.74997C7.66665 9.00974 8.16709 10.2179 9.05788 11.1087C9.94867 11.9995 11.1568 12.4999 12.4166 12.4999Z" fill="#3B3B3B"/>
</svg>
