<svg width="25" height="24" viewBox="0 0 25 24" fill="none" xmlns="http://www.w3.org/2000/svg">
<path d="M2.5 5.40717C2.5 4.76875 2.75461 4.15647 3.20782 3.70504C3.66104 3.25361 4.27573 3 4.91666 3H19.4167C20.0576 3 20.6723 3.25361 21.1255 3.70504C21.5787 4.15647 21.8333 4.76875 21.8333 5.40717V15.0358C21.8333 15.6742 21.5787 16.2865 21.1255 16.7379C20.6723 17.1894 20.0576 17.443 19.4167 17.443H16.3958C16.2082 17.443 16.0232 17.4865 15.8554 17.5701C15.6877 17.6536 15.5417 17.7749 15.4292 17.9244L13.1333 20.9731C13.0208 21.1226 12.8748 21.2439 12.707 21.3275C12.5393 21.411 12.3542 21.4545 12.1667 21.4545C11.9791 21.4545 11.7941 21.411 11.6263 21.3275C11.4585 21.2439 11.3125 21.1226 11.2 20.9731L8.90416 17.9244C8.79161 17.7749 8.64566 17.6536 8.47788 17.5701C8.3101 17.4865 8.12508 17.443 7.9375 17.443H4.91666C4.27573 17.443 3.66104 17.1894 3.20782 16.7379C2.75461 16.2865 2.5 15.6742 2.5 15.0358V5.40717ZM6.72916 6.61075C6.56893 6.61075 6.41526 6.67415 6.30195 6.78701C6.18865 6.89987 6.125 7.05293 6.125 7.21254C6.125 7.37214 6.18865 7.52521 6.30195 7.63807C6.41526 7.75093 6.56893 7.81433 6.72916 7.81433H17.6042C17.7644 7.81433 17.9181 7.75093 18.0314 7.63807C18.1447 7.52521 18.2083 7.37214 18.2083 7.21254C18.2083 7.05293 18.1447 6.89987 18.0314 6.78701C17.9181 6.67415 17.7644 6.61075 17.6042 6.61075H6.72916ZM6.72916 9.6197C6.56893 9.6197 6.41526 9.68311 6.30195 9.79596C6.18865 9.90882 6.125 10.0619 6.125 10.2215C6.125 10.3811 6.18865 10.5342 6.30195 10.647C6.41526 10.7599 6.56893 10.8233 6.72916 10.8233H17.6042C17.7644 10.8233 17.9181 10.7599 18.0314 10.647C18.1447 10.5342 18.2083 10.3811 18.2083 10.2215C18.2083 10.0619 18.1447 9.90882 18.0314 9.79596C17.9181 9.68311 17.7644 9.6197 17.6042 9.6197H6.72916ZM6.72916 12.6287C6.56893 12.6287 6.41526 12.6921 6.30195 12.8049C6.18865 12.9178 6.125 13.0708 6.125 13.2305C6.125 13.3901 6.18865 13.5431 6.30195 13.656C6.41526 13.7688 6.56893 13.8322 6.72916 13.8322H12.7708C12.9311 13.8322 13.0847 13.7688 13.198 13.656C13.3113 13.5431 13.375 13.3901 13.375 13.2305C13.375 13.0708 13.3113 12.9178 13.198 12.8049C13.0847 12.6921 12.9311 12.6287 12.7708 12.6287H6.72916Z" fill="#3B3B3B"/>
</svg>
