<svg width="24" height="24" viewBox="0 0 24 24" fill="none" xmlns="http://www.w3.org/2000/svg">
<path d="M10.1976 3C9.07112 3.0006 7.96045 3.26548 6.9549 3.77334C5.94935 4.2812 5.07697 5.01788 4.40787 5.92417C3.73877 6.83047 3.29163 7.88109 3.10236 8.9916C2.9131 10.1021 2.987 11.2415 3.31813 12.3183C3.64926 13.3951 4.22838 14.3791 5.00894 15.1914C5.78951 16.0036 6.74974 16.6215 7.81247 16.9952C8.8752 17.3689 10.0108 17.4881 11.1279 17.3431C12.2451 17.1982 13.3127 16.7932 14.2449 16.1607L18.6954 20.6077C18.819 20.7403 18.9681 20.8467 19.1337 20.9205C19.2994 20.9943 19.4782 21.034 19.6595 21.0372C19.8408 21.0404 20.0209 21.0071 20.189 20.9391C20.3571 20.8712 20.5099 20.7701 20.6381 20.6419C20.7663 20.5137 20.8674 20.361 20.9353 20.1928C21.0032 20.0247 21.0366 19.8446 21.0334 19.6633C21.0302 19.482 20.9905 19.3032 20.9167 19.1376C20.8429 18.9719 20.7365 18.8229 20.6038 18.6993L16.1569 14.2487C16.8926 13.166 17.3192 11.9031 17.3909 10.596C17.4627 9.28892 17.1767 7.98699 16.5639 6.83022C15.9511 5.67346 15.0346 4.70561 13.9129 4.03074C12.7912 3.35588 11.5067 2.99953 10.1976 3ZM5.69671 10.2015C5.69671 9.00777 6.17092 7.86294 7.015 7.01885C7.85909 6.17476 9.00392 5.70056 10.1976 5.70056C11.3914 5.70056 12.5362 6.17476 13.3803 7.01885C14.2244 7.86294 14.6986 9.00777 14.6986 10.2015C14.6986 11.3952 14.2244 12.54 13.3803 13.3841C12.5362 14.2282 11.3914 14.7024 10.1976 14.7024C9.00392 14.7024 7.85909 14.2282 7.015 13.3841C6.17092 12.54 5.69671 11.3952 5.69671 10.2015Z" fill="#FF3358"/>
</svg>
