<svg width="24" height="24" viewBox="0 0 24 24" fill="none" xmlns="http://www.w3.org/2000/svg">
<path fill-rule="evenodd" clip-rule="evenodd" d="M11.7513 3C10.5766 3 9.44998 3.46465 8.61933 4.29172C7.78868 5.1188 7.32202 6.24055 7.32202 7.41022V8.51277H6.21471C5.94211 8.51275 5.67908 8.61286 5.47599 8.79392C5.2729 8.97497 5.14402 9.22426 5.11404 9.49404L4.00672 19.417C3.98959 19.5711 4.00529 19.7271 4.0528 19.8747C4.1003 20.0223 4.17854 20.1583 4.28241 20.2738C4.38628 20.3893 4.51344 20.4817 4.65559 20.545C4.79774 20.6082 4.95169 20.6409 5.10739 20.6409H18.3952C18.5509 20.6409 18.7048 20.6082 18.847 20.545C18.9891 20.4817 19.1163 20.3893 19.2202 20.2738C19.324 20.1583 19.4023 20.0223 19.4498 19.8747C19.4973 19.7271 19.513 19.5711 19.4959 19.417L18.3885 9.49404C18.3586 9.22426 18.2297 8.97497 18.0266 8.79392C17.8235 8.61286 17.5605 8.51275 17.2879 8.51277H16.1806V7.41022C16.1806 6.24055 15.7139 5.1188 14.8833 4.29172C14.0526 3.46465 12.926 3 11.7513 3ZM13.9659 8.51277V7.41022C13.9659 6.82539 13.7326 6.26451 13.3173 5.85097C12.9019 5.43743 12.3386 5.20511 11.7513 5.20511C11.1639 5.20511 10.6006 5.43743 10.1853 5.85097C9.76999 6.26451 9.53666 6.82539 9.53666 7.41022V8.51277H13.9659ZM7.32202 11.8204C7.32202 11.528 7.43869 11.2476 7.64635 11.0408C7.85401 10.834 8.13566 10.7179 8.42934 10.7179C8.72302 10.7179 9.00467 10.834 9.21233 11.0408C9.41999 11.2476 9.53666 11.528 9.53666 11.8204C9.53666 12.1128 9.41999 12.3933 9.21233 12.6001C9.00467 12.8068 8.72302 12.923 8.42934 12.923C8.13566 12.923 7.85401 12.8068 7.64635 12.6001C7.43869 12.3933 7.32202 12.1128 7.32202 11.8204ZM15.0732 10.7179C14.7796 10.7179 14.4979 10.834 14.2902 11.0408C14.0826 11.2476 13.9659 11.528 13.9659 11.8204C13.9659 12.1128 14.0826 12.3933 14.2902 12.6001C14.4979 12.8068 14.7796 12.923 15.0732 12.923C15.3669 12.923 15.6486 12.8068 15.8562 12.6001C16.0639 12.3933 16.1806 12.1128 16.1806 11.8204C16.1806 11.528 16.0639 11.2476 15.8562 11.0408C15.6486 10.834 15.3669 10.7179 15.0732 10.7179Z" fill="#FF3358"/>
</svg>
