<svg width="24" height="24" viewBox="0 0 24 24" fill="none" xmlns="http://www.w3.org/2000/svg">
<path d="M20.6081 9.11876L15.1532 8.32598L12.7148 3.38243C12.6482 3.24708 12.5386 3.13751 12.4032 3.07091C12.0638 2.90333 11.6513 3.04298 11.4816 3.38243L9.04309 8.32598L3.58821 9.11876C3.43782 9.14024 3.30032 9.21114 3.19504 9.31856C3.06777 9.44937 2.99764 9.62536 3.00006 9.80785C3.00248 9.99034 3.07725 10.1644 3.20794 10.2918L7.15461 14.1397L6.22219 19.5731C6.20033 19.6994 6.21431 19.8294 6.26257 19.9483C6.31082 20.0671 6.39141 20.1701 6.49519 20.2455C6.59898 20.3208 6.72181 20.3656 6.84975 20.3748C6.9777 20.3839 7.10564 20.357 7.21907 20.2971L12.0982 17.7318L16.9773 20.2971C17.1105 20.368 17.2652 20.3916 17.4134 20.3658C17.7872 20.3014 18.0386 19.9469 17.9741 19.5731L17.0417 14.1397L20.9884 10.2918C21.0958 10.1865 21.1667 10.049 21.1882 9.89864C21.2462 9.52266 20.9841 9.17462 20.6081 9.11876Z" fill="#FF3358"/>
</svg>
