<svg width="22" height="21" viewBox="0 0 22 21" fill="none" xmlns="http://www.w3.org/2000/svg">
<path d="M21.047 7.64002L14.6817 6.71493L11.8362 0.94626C11.7585 0.788317 11.6307 0.660459 11.4727 0.582741C11.0766 0.387193 10.5953 0.55015 10.3972 0.94626L7.55172 6.71493L1.18638 7.64002C1.01089 7.66509 0.850443 7.74782 0.727599 7.87317C0.579087 8.02582 0.49725 8.23118 0.500071 8.44413C0.502891 8.65708 0.590138 8.8602 0.742641 9.00886L5.34805 13.4989L4.26 19.8392C4.23448 19.9867 4.25081 20.1384 4.30711 20.2771C4.36342 20.4158 4.45746 20.5359 4.57856 20.6239C4.69967 20.7118 4.843 20.7641 4.9923 20.7747C5.1416 20.7854 5.2909 20.754 5.42326 20.6841L11.1167 17.6907L16.8102 20.6841C16.9656 20.7668 17.1461 20.7944 17.3191 20.7643C17.7553 20.6891 18.0486 20.2754 17.9734 19.8392L16.8854 13.4989L21.4908 9.00886C21.6161 8.88601 21.6989 8.72556 21.7239 8.55007C21.7916 8.11134 21.4858 7.7052 21.047 7.64002V7.64002ZM14.9475 12.8672L15.8525 18.1394L11.1167 15.6525L6.38094 18.142L7.28598 12.8697L3.45524 9.13421L8.75008 8.36455L11.1167 3.56861L13.4834 8.36455L18.7782 9.13421L14.9475 12.8672Z" fill="#FF3358"/>
</svg>
